<?xml version="1.0" encoding="utf-8"?>
<!-- Generator: Adobe Illustrator 19.2.0, SVG Export Plug-In . SVG Version: 6.00 Build 0)  -->
<svg version="1.1" id="Layer_1" xmlns="http://www.w3.org/2000/svg" xmlns:xlink="http://www.w3.org/1999/xlink" x="0px" y="0px"
	 width="900px" height="30px" viewBox="0 0 900 30" style="enable-background:new 0 0 900 30;" xml:space="preserve" preserveAspectRatio="none">
<style type="text/css">
	.st0{fill:#3E3E3E;}
	.st1{fill:#3A3A3A;}
	.st2{fill:none;}
	.st3{fill:#939393;}
	.st4{fill:#C9C9C9;}
	.st5{fill:#FFFFFF;}
	.st6{fill:#1D67BD;}
	.st7{fill:#2E68B0;}
	.st8{fill:#2A68B2;}
	.st9{fill:#CECECE;}
	.st10{fill:#1565C0;}
	.st11{fill:#153351;}
</style>
<g id="Layer_1_1_">
	<path class="st0" d="M42,4h6.3v1.6H42V4z M37.2,6.4v3.9H38V26h14V10.3h0.8V6.4H37.2z M50.5,24.4h-11V11.9h11V24.4z"/>
	<path class="st1" d="M41.2,13.4H42v9.4h-0.8V13.4z M43.5,13.4h0.8v9.4h-0.8V13.4z M45.9,13.4h0.8v9.4h-0.8V13.4z M48.2,13.4H49v9.4
		h-0.8V13.4z"/>
	<path class="st2" d="M-51.9,29V0"/>
	<path class="st3" d="M11.9,4h6.3v1.6H12L11.9,4z M7.2,6.4v3.9H8V26h14.1V10.3h0.8V6.4H7.2z M20.6,24.4h-11V11.9h11V24.4z"/>
	<path class="st3" d="M11.2,13.4H12v9.4h-0.8V13.4z M13.5,13.4h0.8v9.4h-0.8V13.4z M15.9,13.4h0.8v9.4h-0.8
		C15.9,22.8,15.9,13.4,15.9,13.4z M18.2,13.4H19v9.4h-0.8V13.4z M71.9,4h6.3v1.6h-6.3V4z M80.5,24.4h-11V11.9h0.3l-2.7-2.7v1.1h0.8
		V26h14.2v-1.8l-1.6-1.6 M80.5,11.9V17l1.6,1.6v-8.3h0.8V6.4H69.8l5.5,5.5"/>
	<path class="st3" d="M71.1,13.3v9.5h0.8v-9l-0.6-0.5 M73.4,22.8h0.8v-6.6l-0.8-0.8 M75.8,22.8h0.8v-4.2l-0.8-0.8 M78.9,13.3h-0.8
		v1.3l0.8,0.8 M78.1,22.8h0.8v-1.9l-0.8-0.8 M64.4,4.7L65,3.4l20.7,20.7l-0.6,1.3L64.4,4.7z M109.4,6.3l2.2-2.2l4.4,4.4l-2.2,2.2
		L109.4,6.3z M96.9,18.6l4.4,4.4l11-11l-4.4-4.4C107.9,7.7,96.9,18.6,96.9,18.6z M101.3,20.9L99,18.6l8.9-8.9l2.3,2.3
		C110.2,12.1,101.3,20.9,101.3,20.9z M94,25.9l3.7-1.5l-2.2-2.2"/>
	<path class="st1" d="M139.4,6.3l2.2-2.2l4.4,4.4l-2.2,2.2C143.8,10.7,139.4,6.3,139.4,6.3z M126.9,18.6l4.4,4.4l11-11l-4.4-4.4
		C137.9,7.7,126.9,18.6,126.9,18.6z M131.3,20.9l-2.3-2.3l8.9-8.9l2.3,2.3C140.2,12.1,131.3,20.9,131.3,20.9z M124,25.9l3.7-1.5
		l-2.2-2.2"/>
	<path class="st4" d="M169.4,6.2l2.2-2.2l4.4,4.4l-2.2,2.2C173.8,10.6,169.4,6.2,169.4,6.2z M156.9,18.7l4.4,4.4l11-11l-4.4-4.4
		L156.9,18.7z M161.3,21l-2.3-2.3l8.9-8.9l2.3,2.3L161.3,21z M154,26l3.7-1.5l-2.2-2.2"/>
	<path class="st5" d="M200.3,8l-5.3,5.3L189.7,8L188,9.7l5.3,5.3l-5.3,5.3l1.7,1.7l5.3-5.3l5.3,5.3l1.7-1.7l-5.3-5.3l5.3-5.3
		 M229.8,8.3l-6.7,6.7l6.7,6.7c0.1,0.1,0.2,0.3,0.2,0.4s-0.1,0.3-0.2,0.4l-0.9,0.8c-0.1,0.1-0.3,0.2-0.4,0.2s-0.3-0.1-0.4-0.2
		l-7.9-7.9c-0.1-0.1-0.2-0.3-0.2-0.4c0-0.1,0.1-0.3,0.2-0.4l7.9-7.9c0.1-0.1,0.3-0.2,0.4-0.2s0.3,0.1,0.4,0.2l0.9,0.9
		c0.1,0.1,0.2,0.3,0.2,0.4C230,8,229.8,8.2,229.8,8.3z"/>
	<path class="st6" d="M261.7,19.8l-6.7-6.7l-6.7,6.7c-0.1,0.1-0.3,0.2-0.4,0.2c-0.1,0-0.3-0.1-0.4-0.2l-0.9-0.8
		c-0.1-0.1-0.2-0.3-0.2-0.4s0.1-0.3,0.2-0.4l7.9-7.9c0.1-0.1,0.3-0.2,0.4-0.2c0.1,0,0.3,0.1,0.4,0.2l7.9,7.9
		c0.1,0.1,0.2,0.3,0.2,0.4s-0.1,0.3-0.2,0.4l-0.8,0.8c-0.1,0.1-0.3,0.2-0.4,0.2C262,20,261.8,19.8,261.7,19.8L261.7,19.8z"/>
	<path class="st3" d="M280.2,21.7l6.7-6.7l-6.7-6.7C280.1,8.2,280,8,280,7.9s0.1-0.3,0.2-0.4l0.9-0.8c0.1-0.1,0.3-0.2,0.4-0.2
		s0.3,0.1,0.4,0.2l7.9,7.9c0.1,0.1,0.2,0.3,0.2,0.4c0,0.1-0.1,0.3-0.2,0.4l-7.9,7.9c-0.1,0.1-0.3,0.2-0.4,0.2s-0.3-0.1-0.4-0.2
		l-0.9-0.9c-0.1-0.1-0.2-0.3-0.2-0.4S280.2,21.8,280.2,21.7z M308.3,10.2l6.7,6.7l6.7-6.7c0.1-0.1,0.3-0.2,0.4-0.2s0.3,0.1,0.4,0.2
		l0.8,0.8c0.1,0.1,0.2,0.3,0.2,0.4s-0.1,0.3-0.2,0.4l-7.9,7.9c-0.1,0.1-0.3,0.2-0.4,0.2s-0.3-0.1-0.4-0.2l-7.9-7.9
		c-0.1-0.1-0.2-0.3-0.2-0.4s0.1-0.3,0.2-0.4l0.8-0.8c0.1-0.1,0.3-0.2,0.4-0.2S308.2,10.2,308.3,10.2z"/>
	<path class="st6" d="M338.3,10.2l6.7,6.7l6.7-6.7c0.1-0.1,0.3-0.2,0.4-0.2s0.3,0.1,0.4,0.2l0.8,0.8c0.1,0.1,0.2,0.3,0.2,0.4
		s-0.1,0.3-0.2,0.4l-7.9,7.9c-0.1,0.1-0.3,0.2-0.4,0.2s-0.3-0.1-0.4-0.2l-7.9-7.9c-0.1-0.1-0.2-0.3-0.2-0.4s0.1-0.3,0.2-0.4l0.8-0.8
		c0.1-0.1,0.3-0.2,0.4-0.2S338.2,10.2,338.3,10.2z"/>
</g>
<path class="st5" d="M501.4,11.9c0,0.2-0.1,0.4-0.2,0.6l-6.1,6.1l-1.1,1.1c-0.2,0.2-0.3,0.2-0.6,0.2s-0.4-0.1-0.6-0.2l-1.1-1.1l-3-3
	c-0.2-0.2-0.2-0.3-0.2-0.6c0-0.2,0.1-0.4,0.2-0.6l1.1-1.1c0.2-0.2,0.3-0.2,0.6-0.2s0.4,0.1,0.6,0.2l2.5,2.5l5.5-5.5
	c0.2-0.2,0.3-0.2,0.6-0.2s0.4,0.1,0.6,0.2l1.1,1.1C501.3,11.4,501.4,11.6,501.4,11.9z"/>
<path class="st7" d="M531.4,11.9c0,0.2-0.1,0.4-0.2,0.6l-6.1,6.1l-1.1,1.1c-0.2,0.2-0.3,0.2-0.6,0.2s-0.4-0.1-0.6-0.2l-1.1-1.1l-3-3
	c-0.2-0.2-0.2-0.3-0.2-0.6c0-0.2,0.1-0.4,0.2-0.6l1.1-1.1c0.2-0.2,0.3-0.2,0.6-0.2s0.4,0.1,0.6,0.2l2.5,2.5l5.5-5.5
	c0.2-0.2,0.3-0.2,0.6-0.2s0.4,0.1,0.6,0.2l1.1,1.1C531.3,11.4,531.4,11.6,531.4,11.9L531.4,11.9z"/>
<g id="New_Symbol_49">
	<g id="New_Symbol_39">
		<path class="st8" d="M556.3,9.5c-3,0-5.4,2.4-5.4,5.4v3.9l-2-2l-0.6,0.7l3,3l3-3l-0.6-0.7l-1.9,2v-3.9c0-2.5,2-4.5,4.5-4.5
			s4.5,2,4.5,4.5s-2,4.5-4.5,4.5v0.9c3,0,5.4-2.4,5.4-5.4S559.3,9.5,556.3,9.5z"/>
		<path class="st8" d="M556.9,16.1l0.6-0.6l-0.7-0.8l2.3-2.3l-0.3-0.4l-2.4,2.4l-1.2-1.2l-0.6,0.7l1.2,1.2l-0.6,0.5l0.3,0.4l0.6-0.6
			L556.9,16.1L556.9,16.1z"/>
	</g>
</g>
<path id="XMLID_5_" class="st9" d="M585,21c-3.3,0-6-2.7-6-6s2.7-6,6-6s6,2.7,6,6S588.3,21,585,21z M585,9.8c-2.9,0-5.2,2.3-5.2,5.2
	s2.3,5.2,5.2,5.2s5.2-2.3,5.2-5.2S587.9,9.8,585,9.8z"/>
<path class="st2" d="M600,0h30"/>
<path id="XMLID_3_" class="st3" d="M615,21c-3.3,0-6-2.7-6-6s2.7-6,6-6s6,2.7,6,6S618.3,21,615,21z M615,9.8c-2.9,0-5.2,2.3-5.2,5.2
	s2.3,5.2,5.2,5.2s5.2-2.3,5.2-5.2S617.9,9.8,615,9.8z"/>
<path id="XMLID_1_" class="st8" d="M645,21c-3.3,0-6-2.7-6-6s2.7-6,6-6s6,2.7,6,6S648.3,21,645,21z M645,9.8c-2.9,0-5.2,2.3-5.2,5.2
	s2.3,5.2,5.2,5.2s5.2-2.3,5.2-5.2S647.9,9.8,645,9.8z"/>
<circle class="st10" cx="645" cy="15" r="3.6"/>
<path id="XMLID_2_" class="st11" d="M675,21c-3.3,0-6-2.7-6-6s2.7-6,6-6s6,2.7,6,6S678.3,21,675,21z M675,9.8
	c-2.9,0-5.2,2.3-5.2,5.2s2.3,5.2,5.2,5.2s5.2-2.3,5.2-5.2S677.9,9.8,675,9.8z"/>
<circle class="st10" cx="675" cy="15" r="3.6"/>
<path class="st4" d="M374.8,10c3-0.1,5.3,2.2,5.2,5.2c-0.1,2.5-2.2,4.7-4.8,4.8c-3,0.1-5.3-2.2-5.2-5.2
	C370.1,12.2,372.2,10.1,374.8,10z"/>
<path class="st7" d="M405,10c2.8,0,5,2.2,5,5s-2.2,5-5,5s-5-2.2-5-5S402.2,10,405,10z"/>
<path class="st3" d="M710.3,8l-5.3,5.3L699.7,8L698,9.7l5.3,5.3l-5.3,5.3l1.7,1.7l5.3-5.3l5.3,5.3l1.7-1.7l-5.3-5.3l5.3-5.3"/>
<g>
	<polygon class="st3" points="436.1,13.5 432.7,13.5 432.7,14.6 433.9,14.6 433.9,18 432.7,18 432.7,19.2 437.3,19.2 437.3,18 
		436.1,18 	"/>
	<circle class="st3" cx="435" cy="11.2" r="1.1"/>
	<path class="st3" d="M435,7c-4.4,0-8,3.6-8,8s3.6,8,8,8s8-3.6,8-8C443,10.6,439.4,7,435,7z M435,21.9c-3.8,0-6.9-3.1-6.9-6.9
		s3.1-6.9,6.9-6.9c3.8,0,6.9,3.1,6.9,6.9C441.9,18.8,438.8,21.9,435,21.9z"/>
</g>
<g>
	<polygon class="st0" points="466.1,13.5 462.7,13.5 462.7,14.6 463.9,14.6 463.9,18 462.7,18 462.7,19.2 467.3,19.2 467.3,18 
		466.1,18 	"/>
	<circle class="st0" cx="465" cy="11.2" r="1.1"/>
	<path class="st0" d="M465,7c-4.4,0-8,3.6-8,8s3.6,8,8,8s8-3.6,8-8C473,10.6,469.4,7,465,7z M465,21.9c-3.8,0-6.9-3.1-6.9-6.9
		s3.1-6.9,6.9-6.9c3.8,0,6.9,3.1,6.9,6.9C471.9,18.8,468.8,21.9,465,21.9z"/>
</g>
</svg>
